<svg width="25" height="26" viewBox="0 0 25 26" fill="none" xmlns="http://www.w3.org/2000/svg">
<mask id="path-1-inside-1_226_1262" fill="white">
<path d="M12.8906 0.890625C6.20117 0.890625 0.78125 6.31055 0.78125 13C0.78125 19.6895 6.20117 25.1094 12.8906 25.1094C19.5801 25.1094 25 19.6895 25 13C25 6.31055 19.5801 0.890625 12.8906 0.890625ZM22.6562 13C22.6562 14.0986 22.4658 15.1582 22.1289 16.1445H21.1377C20.9277 16.1445 20.7275 16.0615 20.5811 15.9102L19.0186 14.3184C18.7988 14.0938 18.7988 13.7275 19.0234 13.5029L19.6338 12.8926V12.4678C19.6338 12.3213 19.5752 12.1797 19.4727 12.0771L19.0137 11.6182C18.9111 11.5156 18.7695 11.457 18.623 11.457H17.8418C17.5391 11.457 17.29 11.208 17.29 10.9053C17.29 10.7588 17.3486 10.6172 17.4512 10.5146L17.9102 10.0557C18.0127 9.95312 18.1543 9.89453 18.3008 9.89453H19.8633C20.166 9.89453 20.415 9.64551 20.415 9.34277V8.88379C20.415 8.58105 20.166 8.33203 19.8633 8.33203H18.0713C17.6416 8.33203 17.29 8.68359 17.29 9.11328V9.33301C17.29 9.66992 17.0752 9.96777 16.7578 10.0752L15.2148 10.5879C15.0537 10.6416 14.9463 10.7881 14.9463 10.959V11.0664C14.9463 11.2812 14.7705 11.457 14.5557 11.457H13.7744C13.5596 11.457 13.3838 11.2812 13.3838 11.0664C13.3838 10.8516 13.208 10.6758 12.9932 10.6758H12.8418C12.6953 10.6758 12.5586 10.7588 12.4902 10.8906L12.0312 11.8037C11.8994 12.0674 11.6309 12.2334 11.333 12.2334H10.2539C9.82422 12.2334 9.47266 11.8818 9.47266 11.4521V10.2168C9.47266 10.0117 9.55566 9.81152 9.70215 9.66504L10.6836 8.68359C10.9082 8.45898 11.0352 8.15137 11.0352 7.8291C11.0352 7.66309 11.1426 7.51172 11.3037 7.45801L13.2568 6.80859C13.3398 6.7793 13.4131 6.73535 13.4717 6.67676L14.7803 5.36816C14.8828 5.26562 14.9414 5.12402 14.9414 4.97754C14.9414 4.6748 14.6924 4.42578 14.3896 4.42578H13.3789L12.5977 5.20703V5.59766C12.5977 5.8125 12.4219 5.98828 12.207 5.98828H11.4258C11.2109 5.98828 11.0352 5.8125 11.0352 5.59766V4.62109C11.0352 4.49902 11.0938 4.38184 11.1914 4.30859L12.6025 3.24902C12.6953 3.24414 12.7881 3.23438 12.8809 3.23438C18.2764 3.23438 22.6562 7.61426 22.6562 13ZM7.13379 7.78027C7.13379 7.63379 7.19238 7.49219 7.29492 7.38965L8.53516 6.14941C8.6377 6.04688 8.7793 5.98828 8.92578 5.98828C9.22852 5.98828 9.47754 6.2373 9.47754 6.54004V7.32129C9.47754 7.46777 9.41895 7.60938 9.31641 7.71191L8.85742 8.1709C8.75488 8.27344 8.61328 8.33203 8.4668 8.33203H7.68555C7.38281 8.33203 7.13379 8.08301 7.13379 7.78027ZM13.3838 22.7412V22.3945C13.3838 21.9648 13.0322 21.6133 12.6025 21.6133H11.6162C11.0889 21.6133 10.3125 21.3545 9.8877 21.0371L8.80371 20.2217C8.24219 19.8018 7.91504 19.1426 7.91504 18.4443V17.2773C7.91504 16.4961 8.3252 15.7734 8.99414 15.373L11.0889 14.1182C11.4355 13.9131 11.8311 13.8008 12.2314 13.8008H13.7549C14.2871 13.8008 14.7998 13.9912 15.2002 14.333L17.3096 16.1445H18.2031C18.6182 16.1445 19.0137 16.3105 19.3066 16.6035L20.1514 17.4482C20.3174 17.6143 20.5469 17.707 20.7812 17.707H21.4355C19.8535 20.583 16.8555 22.5654 13.3838 22.7412Z"/>
</mask>
<path d="M12.8906 0.890625C6.20117 0.890625 0.78125 6.31055 0.78125 13C0.78125 19.6895 6.20117 25.1094 12.8906 25.1094C19.5801 25.1094 25 19.6895 25 13C25 6.31055 19.5801 0.890625 12.8906 0.890625ZM22.6562 13C22.6562 14.0986 22.4658 15.1582 22.1289 16.1445H21.1377C20.9277 16.1445 20.7275 16.0615 20.5811 15.9102L19.0186 14.3184C18.7988 14.0938 18.7988 13.7275 19.0234 13.5029L19.6338 12.8926V12.4678C19.6338 12.3213 19.5752 12.1797 19.4727 12.0771L19.0137 11.6182C18.9111 11.5156 18.7695 11.457 18.623 11.457H17.8418C17.5391 11.457 17.29 11.208 17.29 10.9053C17.29 10.7588 17.3486 10.6172 17.4512 10.5146L17.9102 10.0557C18.0127 9.95312 18.1543 9.89453 18.3008 9.89453H19.8633C20.166 9.89453 20.415 9.64551 20.415 9.34277V8.88379C20.415 8.58105 20.166 8.33203 19.8633 8.33203H18.0713C17.6416 8.33203 17.29 8.68359 17.29 9.11328V9.33301C17.29 9.66992 17.0752 9.96777 16.7578 10.0752L15.2148 10.5879C15.0537 10.6416 14.9463 10.7881 14.9463 10.959V11.0664C14.9463 11.2812 14.7705 11.457 14.5557 11.457H13.7744C13.5596 11.457 13.3838 11.2812 13.3838 11.0664C13.3838 10.8516 13.208 10.6758 12.9932 10.6758H12.8418C12.6953 10.6758 12.5586 10.7588 12.4902 10.8906L12.0312 11.8037C11.8994 12.0674 11.6309 12.2334 11.333 12.2334H10.2539C9.82422 12.2334 9.47266 11.8818 9.47266 11.4521V10.2168C9.47266 10.0117 9.55566 9.81152 9.70215 9.66504L10.6836 8.68359C10.9082 8.45898 11.0352 8.15137 11.0352 7.8291C11.0352 7.66309 11.1426 7.51172 11.3037 7.45801L13.2568 6.80859C13.3398 6.7793 13.4131 6.73535 13.4717 6.67676L14.7803 5.36816C14.8828 5.26562 14.9414 5.12402 14.9414 4.97754C14.9414 4.6748 14.6924 4.42578 14.3896 4.42578H13.3789L12.5977 5.20703V5.59766C12.5977 5.8125 12.4219 5.98828 12.207 5.98828H11.4258C11.2109 5.98828 11.0352 5.8125 11.0352 5.59766V4.62109C11.0352 4.49902 11.0938 4.38184 11.1914 4.30859L12.6025 3.24902C12.6953 3.24414 12.7881 3.23438 12.8809 3.23438C18.2764 3.23438 22.6562 7.61426 22.6562 13ZM7.13379 7.78027C7.13379 7.63379 7.19238 7.49219 7.29492 7.38965L8.53516 6.14941C8.6377 6.04688 8.7793 5.98828 8.92578 5.98828C9.22852 5.98828 9.47754 6.2373 9.47754 6.54004V7.32129C9.47754 7.46777 9.41895 7.60938 9.31641 7.71191L8.85742 8.1709C8.75488 8.27344 8.61328 8.33203 8.4668 8.33203H7.68555C7.38281 8.33203 7.13379 8.08301 7.13379 7.78027ZM13.3838 22.7412V22.3945C13.3838 21.9648 13.0322 21.6133 12.6025 21.6133H11.6162C11.0889 21.6133 10.3125 21.3545 9.8877 21.0371L8.80371 20.2217C8.24219 19.8018 7.91504 19.1426 7.91504 18.4443V17.2773C7.91504 16.4961 8.3252 15.7734 8.99414 15.373L11.0889 14.1182C11.4355 13.9131 11.8311 13.8008 12.2314 13.8008H13.7549C14.2871 13.8008 14.7998 13.9912 15.2002 14.333L17.3096 16.1445H18.2031C18.6182 16.1445 19.0137 16.3105 19.3066 16.6035L20.1514 17.4482C20.3174 17.6143 20.5469 17.707 20.7812 17.707H21.4355C19.8535 20.583 16.8555 22.5654 13.3838 22.7412Z" fill="#BF9765"/>
<path d="M22.1289 16.1445V17.1445H22.8441L23.0752 16.4678L22.1289 16.1445ZM20.5811 15.9102L21.2997 15.2147L21.2947 15.2096L20.5811 15.9102ZM19.0186 14.3184L18.3037 15.0177L18.3049 15.0189L19.0186 14.3184ZM19.0234 13.5029L18.3163 12.7958L19.0234 13.5029ZM19.6338 12.8926L20.3409 13.5997L20.6338 13.3068V12.8926H19.6338ZM19.4727 12.0771L18.7655 12.7843V12.7843L19.4727 12.0771ZM19.0137 11.6182L19.7208 10.9111H19.7208L19.0137 11.6182ZM17.4512 10.5146L18.1583 11.2218L18.1583 11.2218L17.4512 10.5146ZM17.9102 10.0557L17.203 9.34856L17.9102 10.0557ZM16.7578 10.0752L17.0731 11.0242L17.0784 11.0224L16.7578 10.0752ZM15.2148 10.5879L14.8995 9.63891L14.8986 9.63921L15.2148 10.5879ZM12.4902 10.8906L11.6024 10.4303L11.5968 10.4415L12.4902 10.8906ZM12.0312 11.8037L11.1378 11.3546L11.1368 11.3565L12.0312 11.8037ZM9.70215 9.66504L8.99504 8.95793V8.95793L9.70215 9.66504ZM10.6836 8.68359L11.3907 9.3907L10.6836 8.68359ZM11.3037 7.45801L10.9882 6.50909L10.9875 6.50932L11.3037 7.45801ZM13.2568 6.80859L13.5724 7.75751L13.581 7.75463L13.5897 7.75158L13.2568 6.80859ZM13.4717 6.67676L12.7646 5.96965L12.7646 5.96965L13.4717 6.67676ZM14.7803 5.36816L15.4874 6.07527V6.07527L14.7803 5.36816ZM13.3789 4.42578V3.42578H12.9647L12.6718 3.71867L13.3789 4.42578ZM12.5977 5.20703L11.8905 4.49992L11.5977 4.79282V5.20703H12.5977ZM11.1914 4.30859L11.7914 5.10859L11.7918 5.10826L11.1914 4.30859ZM12.6025 3.24902L12.55 2.25041L12.2457 2.26642L12.0021 2.44936L12.6025 3.24902ZM13.3838 22.7412H12.3838V23.7931L13.4344 23.7399L13.3838 22.7412ZM9.8877 21.0371L9.28654 21.8362L9.28917 21.8382L9.8877 21.0371ZM8.80371 20.2217L9.40487 19.4225L9.4026 19.4208L8.80371 20.2217ZM8.99414 15.373L9.50772 16.2311L9.50805 16.2309L8.99414 15.373ZM11.0889 14.1182L10.5797 13.2575L10.575 13.2603L11.0889 14.1182ZM15.2002 14.333L15.8517 13.5744L15.8495 13.5724L15.2002 14.333ZM17.3096 16.1445L16.6581 16.9032L16.9391 17.1445H17.3096V16.1445ZM21.4355 17.707L22.3117 18.189L23.1269 16.707H21.4355V17.707ZM12.8906 -0.109375C5.64889 -0.109375 -0.21875 5.75826 -0.21875 13H1.78125C1.78125 6.86283 6.75346 1.89062 12.8906 1.89062V-0.109375ZM-0.21875 13C-0.21875 20.2417 5.64889 26.1094 12.8906 26.1094V24.1094C6.75346 24.1094 1.78125 19.1372 1.78125 13H-0.21875ZM12.8906 26.1094C20.1324 26.1094 26 20.2417 26 13H24C24 19.1372 19.0278 24.1094 12.8906 24.1094V26.1094ZM26 13C26 5.75826 20.1324 -0.109375 12.8906 -0.109375V1.89062C19.0278 1.89062 24 6.86283 24 13H26ZM21.6562 13C21.6562 13.9826 21.486 14.9332 21.1826 15.8213L23.0752 16.4678C23.4457 15.3832 23.6562 14.2146 23.6562 13H21.6562ZM22.1289 15.1445H21.1377V17.1445H22.1289V15.1445ZM21.1377 15.1445C21.1931 15.1445 21.2539 15.1675 21.2997 15.2147L19.8625 16.6056C20.2012 16.9556 20.6624 17.1445 21.1377 17.1445V15.1445ZM21.2947 15.2096L19.7322 13.6179L18.3049 15.0189L19.8674 16.6107L21.2947 15.2096ZM19.7334 13.6191C19.8951 13.7844 19.8952 14.0453 19.7305 14.21L18.3163 12.7958C17.7024 13.4097 17.7026 14.4031 18.3037 15.0177L19.7334 13.6191ZM19.7305 14.21L20.3409 13.5997L18.9267 12.1855L18.3163 12.7958L19.7305 14.21ZM20.6338 12.8926V12.4678H18.6338V12.8926H20.6338ZM20.6338 12.4678C20.6338 12.0578 20.471 11.6613 20.1798 11.37L18.7655 12.7843C18.6794 12.6981 18.6338 12.5848 18.6338 12.4678H20.6338ZM20.1798 11.37L19.7208 10.9111L18.3066 12.3253L18.7655 12.7843L20.1798 11.37ZM19.7208 10.9111C19.4295 10.6198 19.0331 10.457 18.623 10.457V12.457C18.506 12.457 18.3928 12.4115 18.3066 12.3253L19.7208 10.9111ZM18.623 10.457H17.8418V12.457H18.623V10.457ZM17.8418 10.457C18.0913 10.457 18.29 10.6557 18.29 10.9053H16.29C16.29 11.7603 16.9868 12.457 17.8418 12.457V10.457ZM18.29 10.9053C18.29 11.0223 18.2445 11.1356 18.1583 11.2218L16.7441 9.80754C16.4528 10.0988 16.29 10.4953 16.29 10.9053H18.29ZM18.1583 11.2218L18.6173 10.7628L17.203 9.34856L16.7441 9.80754L18.1583 11.2218ZM18.6173 10.7628C18.5311 10.849 18.4178 10.8945 18.3008 10.8945V8.89453C17.8908 8.89453 17.4943 9.05729 17.203 9.34856L18.6173 10.7628ZM18.3008 10.8945H19.8633V8.89453H18.3008V10.8945ZM19.8633 10.8945C20.7183 10.8945 21.415 10.1978 21.415 9.34277H19.415C19.415 9.09322 19.6137 8.89453 19.8633 8.89453V10.8945ZM21.415 9.34277V8.88379H19.415V9.34277H21.415ZM21.415 8.88379C21.415 8.02877 20.7183 7.33203 19.8633 7.33203V9.33203C19.6137 9.33203 19.415 9.13334 19.415 8.88379H21.415ZM19.8633 7.33203H18.0713V9.33203H19.8633V7.33203ZM18.0713 7.33203C17.0893 7.33203 16.29 8.13131 16.29 9.11328H18.29C18.29 9.23588 18.1939 9.33203 18.0713 9.33203V7.33203ZM16.29 9.11328V9.33301H18.29V9.11328H16.29ZM16.29 9.33301C16.29 9.24006 16.3496 9.15765 16.4372 9.12798L17.0784 11.0224C17.8008 10.7779 18.29 10.0998 18.29 9.33301H16.29ZM16.4425 9.12621L14.8995 9.63891L15.5302 11.5369L17.0731 11.0242L16.4425 9.12621ZM14.8986 9.63921C14.3349 9.8271 13.9463 10.3516 13.9463 10.959H15.9463C15.9463 11.2246 15.7725 11.4561 15.5311 11.5366L14.8986 9.63921ZM13.9463 10.959V11.0664H15.9463V10.959H13.9463ZM13.9463 11.0664C13.9463 10.729 14.2182 10.457 14.5557 10.457V12.457C15.3228 12.457 15.9463 11.8335 15.9463 11.0664H13.9463ZM14.5557 10.457H13.7744V12.457H14.5557V10.457ZM13.7744 10.457C14.1119 10.457 14.3838 10.729 14.3838 11.0664H12.3838C12.3838 11.8335 13.0073 12.457 13.7744 12.457V10.457ZM14.3838 11.0664C14.3838 10.2993 13.7603 9.67578 12.9932 9.67578V11.6758C12.6557 11.6758 12.3838 11.4038 12.3838 11.0664H14.3838ZM12.9932 9.67578H12.8418V11.6758H12.9932V9.67578ZM12.8418 9.67578C12.3195 9.67578 11.8417 9.96902 11.6025 10.4303L13.378 11.3509C13.2755 11.5486 13.0712 11.6758 12.8418 11.6758V9.67578ZM11.5968 10.4415L11.1378 11.3546L12.9247 12.2528L13.3837 11.3397L11.5968 10.4415ZM11.1368 11.3565C11.1753 11.2795 11.2542 11.2334 11.333 11.2334V13.2334C12.0075 13.2334 12.6235 12.8553 12.9257 12.2509L11.1368 11.3565ZM11.333 11.2334H10.2539V13.2334H11.333V11.2334ZM10.2539 11.2334C10.3765 11.2334 10.4727 11.3296 10.4727 11.4521H8.47266C8.47266 12.4341 9.27193 13.2334 10.2539 13.2334V11.2334ZM10.4727 11.4521V10.2168H8.47266V11.4521H10.4727ZM10.4727 10.2168C10.4727 10.2786 10.4491 10.3323 10.4093 10.3721L8.99504 8.95793C8.66222 9.29076 8.47266 9.74482 8.47266 10.2168H10.4727ZM10.4093 10.3721L11.3907 9.3907L9.97649 7.97649L8.99504 8.95793L10.4093 10.3721ZM11.3907 9.3907C11.805 8.97643 12.0352 8.41356 12.0352 7.8291H10.0352C10.0352 7.88918 10.0114 7.94154 9.97649 7.97649L11.3907 9.3907ZM12.0352 7.8291C12.0352 8.09229 11.8683 8.3239 11.6199 8.40669L10.9875 6.50932C10.4168 6.69954 10.0352 7.23388 10.0352 7.8291H12.0352ZM11.6192 8.40693L13.5724 7.75751L12.9413 5.85967L10.9882 6.50909L11.6192 8.40693ZM13.5897 7.75158C13.7942 7.67939 14.0011 7.5616 14.1788 7.38386L12.7646 5.96965C12.8251 5.90911 12.8855 5.8792 12.924 5.8656L13.5897 7.75158ZM14.1788 7.38386L15.4874 6.07527L14.0732 4.66106L12.7646 5.96965L14.1788 7.38386ZM15.4874 6.07527C15.7787 5.784 15.9414 5.38755 15.9414 4.97754H13.9414C13.9414 4.8605 13.987 4.74725 14.0732 4.66106L15.4874 6.07527ZM15.9414 4.97754C15.9414 4.12252 15.2447 3.42578 14.3896 3.42578V5.42578C14.1401 5.42578 13.9414 5.22709 13.9414 4.97754H15.9414ZM14.3896 3.42578H13.3789V5.42578H14.3896V3.42578ZM12.6718 3.71867L11.8905 4.49992L13.3048 5.91414L14.086 5.13289L12.6718 3.71867ZM11.5977 5.20703V5.59766H13.5977V5.20703H11.5977ZM11.5977 5.59766C11.5977 5.26022 11.8696 4.98828 12.207 4.98828V6.98828C12.9742 6.98828 13.5977 6.36478 13.5977 5.59766H11.5977ZM12.207 4.98828H11.4258V6.98828H12.207V4.98828ZM11.4258 4.98828C11.7632 4.98828 12.0352 5.26022 12.0352 5.59766H10.0352C10.0352 6.36478 10.6587 6.98828 11.4258 6.98828V4.98828ZM12.0352 5.59766V4.62109H10.0352V5.59766H12.0352ZM12.0352 4.62109C12.0352 4.81378 11.9456 4.99298 11.7914 5.10859L10.5914 3.50859C10.2419 3.77069 10.0352 4.18427 10.0352 4.62109H12.0352ZM11.7918 5.10826L13.203 4.04869L12.0021 2.44936L10.591 3.50893L11.7918 5.10826ZM12.6551 4.24764C12.8222 4.23885 12.8188 4.23438 12.8809 4.23438V2.23438C12.7574 2.23438 12.5685 2.24943 12.55 2.25041L12.6551 4.24764ZM12.8809 4.23438C17.7247 4.23438 21.6562 8.16719 21.6562 13H23.6562C23.6562 7.06132 18.828 2.23438 12.8809 2.23438V4.23438ZM8.13379 7.78027C8.13379 7.89731 8.08822 8.01056 8.00203 8.09676L6.58781 6.68254C6.29655 6.97381 6.13379 7.37027 6.13379 7.78027H8.13379ZM8.00203 8.09676L9.24226 6.85652L7.82805 5.44231L6.58781 6.68254L8.00203 8.09676ZM9.24226 6.85652C9.15607 6.94271 9.04282 6.98828 8.92578 6.98828V4.98828C8.51577 4.98828 8.11932 5.15104 7.82805 5.44231L9.24226 6.85652ZM8.92578 6.98828C8.67623 6.98828 8.47754 6.78959 8.47754 6.54004H10.4775C10.4775 5.68502 9.7808 4.98828 8.92578 4.98828V6.98828ZM8.47754 6.54004V7.32129H10.4775V6.54004H8.47754ZM8.47754 7.32129C8.47754 7.20425 8.52311 7.091 8.6093 7.00481L10.0235 8.41902C10.3148 8.12775 10.4775 7.7313 10.4775 7.32129H8.47754ZM8.6093 7.00481L8.15031 7.46379L9.56453 8.87801L10.0235 8.41902L8.6093 7.00481ZM8.15031 7.46379C8.23651 7.3776 8.34976 7.33203 8.4668 7.33203V9.33203C8.8768 9.33203 9.27326 9.16927 9.56453 8.87801L8.15031 7.46379ZM8.4668 7.33203H7.68555V9.33203H8.4668V7.33203ZM7.68555 7.33203C7.9351 7.33203 8.13379 7.53072 8.13379 7.78027H6.13379C6.13379 8.63529 6.83053 9.33203 7.68555 9.33203V7.33203ZM14.3838 22.7412V22.3945H12.3838V22.7412H14.3838ZM14.3838 22.3945C14.3838 21.4126 13.5845 20.6133 12.6025 20.6133V22.6133C12.4799 22.6133 12.3838 22.5171 12.3838 22.3945H14.3838ZM12.6025 20.6133H11.6162V22.6133H12.6025V20.6133ZM11.6162 20.6133C11.4936 20.6133 11.2786 20.5785 11.0297 20.4955C10.7812 20.4127 10.5867 20.311 10.4862 20.236L9.28917 21.8382C9.61354 22.0806 10.0196 22.267 10.3973 22.3929C10.7747 22.5187 11.2115 22.6133 11.6162 22.6133V20.6133ZM10.4888 20.238L9.40486 19.4225L8.20256 21.0208L9.28654 21.8362L10.4888 20.238ZM9.4026 19.4208C9.09532 19.1911 8.91504 18.8296 8.91504 18.4443H6.91504C6.91504 19.4556 7.38905 20.4125 8.20483 21.0225L9.4026 19.4208ZM8.91504 18.4443V17.2773H6.91504V18.4443H8.91504ZM8.91504 17.2773C8.91504 16.8478 9.14048 16.4509 9.50772 16.2311L8.48057 14.515C7.50991 15.096 6.91504 16.1444 6.91504 17.2773H8.91504ZM9.50805 16.2309L11.6028 14.976L10.575 13.2603L8.48023 14.5152L9.50805 16.2309ZM11.598 14.9788C11.7969 14.8612 12.0175 14.8008 12.2314 14.8008V12.8008C11.6446 12.8008 11.0742 12.965 10.5797 13.2575L11.598 14.9788ZM12.2314 14.8008H13.7549V12.8008H12.2314V14.8008ZM13.7549 14.8008C14.0487 14.8008 14.3313 14.9061 14.5509 15.0936L15.8495 13.5724C15.2683 13.0764 14.5255 12.8008 13.7549 12.8008V14.8008ZM14.5487 15.0916L16.6581 16.9032L17.9611 15.3859L15.8517 13.5744L14.5487 15.0916ZM17.3096 17.1445H18.2031V15.1445H17.3096V17.1445ZM18.2031 17.1445C18.3496 17.1445 18.4917 17.2028 18.5995 17.3106L20.0137 15.8964C19.5356 15.4183 18.8867 15.1445 18.2031 15.1445V17.1445ZM18.5995 17.3106L19.4443 18.1553L20.8585 16.7411L20.0137 15.8964L18.5995 17.3106ZM19.4443 18.1553C19.8023 18.5133 20.288 18.707 20.7812 18.707V16.707C20.7955 16.707 20.808 16.7097 20.8193 16.7143C20.8307 16.719 20.8445 16.7272 20.8585 16.7411L19.4443 18.1553ZM20.7812 18.707H21.4355V16.707H20.7812V18.707ZM20.5594 17.2251C19.1396 19.8061 16.4489 21.5847 13.3332 21.7425L13.4344 23.7399C17.2621 23.5461 20.5675 21.3599 22.3117 18.189L20.5594 17.2251Z" fill="#BF9765" mask="url(#path-1-inside-1_226_1262)"/>
</svg>
