<svg width="65" height="120" viewBox="0 0 65 120" fill="none" xmlns="http://www.w3.org/2000/svg">
<path d="M32.5 61.5625C36.3818 61.5625 39.5312 58.4131 39.5312 54.5312C39.5312 50.6494 36.3818 47.5 32.5 47.5C28.6182 47.5 25.4688 50.6494 25.4688 54.5312C25.4688 58.4131 28.6182 61.5625 32.5 61.5625ZM38.75 63.125H36.0596C34.9756 63.623 33.7695 63.9062 32.5 63.9062C31.2305 63.9062 30.0293 63.623 28.9404 63.125H26.25C22.7979 63.125 20 65.9229 20 69.375V70.1562C20 71.4502 21.0498 72.5 22.3438 72.5H42.6562C43.9502 72.5 45 71.4502 45 70.1562V69.375C45 65.9229 42.2021 63.125 38.75 63.125Z" fill="#BF9765"/>
</svg>
