<svg width="20" height="20" viewBox="0 0 20 20" fill="none" xmlns="http://www.w3.org/2000/svg">
<path d="M10.0022 4.87342C7.16453 4.87342 4.87563 7.16233 4.87563 10C4.87563 12.8377 7.16453 15.1266 10.0022 15.1266C12.8399 15.1266 15.1288 12.8377 15.1288 10C15.1288 7.16233 12.8399 4.87342 10.0022 4.87342ZM10.0022 13.333C8.16843 13.333 6.66927 11.8383 6.66927 10C6.66927 8.16177 8.16397 6.66707 10.0022 6.66707C11.8405 6.66707 13.3352 8.16177 13.3352 10C13.3352 11.8383 11.836 13.333 10.0022 13.333ZM16.5343 4.66372C16.5343 5.32853 15.9989 5.85948 15.3385 5.85948C14.6737 5.85948 14.1428 5.32407 14.1428 4.66372C14.1428 4.00337 14.6782 3.46796 15.3385 3.46796C15.9989 3.46796 16.5343 4.00337 16.5343 4.66372ZM19.9297 5.87733C19.8539 4.27554 19.488 2.85669 18.3146 1.6877C17.1456 0.518711 15.7267 0.152844 14.1249 0.0725316C12.4741 -0.0211661 7.52593 -0.0211661 5.87507 0.0725316C4.27775 0.148382 2.8589 0.514249 1.68544 1.68324C0.511991 2.85223 0.150586 4.27108 0.0702733 5.87287C-0.0234244 7.52373 -0.0234244 12.4719 0.0702733 14.1227C0.146124 15.7245 0.511991 17.1434 1.68544 18.3124C2.8589 19.4813 4.27328 19.8472 5.87507 19.9275C7.52593 20.0212 12.4741 20.0212 14.1249 19.9275C15.7267 19.8517 17.1456 19.4858 18.3146 18.3124C19.4835 17.1434 19.8494 15.7245 19.9297 14.1227C20.0234 12.4719 20.0234 7.52819 19.9297 5.87733ZM17.797 15.8941C17.449 16.7686 16.7752 17.4423 15.8963 17.7948C14.58 18.3168 11.4568 18.1963 10.0022 18.1963C8.54769 18.1963 5.41997 18.3124 4.1082 17.7948C3.23369 17.4468 2.55996 16.773 2.20747 15.8941C1.68544 14.5778 1.80591 11.4546 1.80591 10C1.80591 8.54548 1.68991 5.41776 2.20747 4.106C2.55549 3.23148 3.22922 2.55775 4.1082 2.20527C5.42443 1.68324 8.54769 1.80371 10.0022 1.80371C11.4568 1.80371 14.5845 1.6877 15.8963 2.20527C16.7708 2.55329 17.4445 3.22702 17.797 4.106C18.319 5.42222 18.1985 8.54548 18.1985 10C18.1985 11.4546 18.319 14.5823 17.797 15.8941Z" fill="#E8D19F"/>
</svg>
