<svg width="20" height="20" viewBox="0 0 20 20" fill="none" xmlns="http://www.w3.org/2000/svg">
<path d="M19.4296 13.757L15.0546 12.0524C14.8677 11.98 14.6599 11.9647 14.4627 12.0089C14.2654 12.0531 14.0893 12.1544 13.9608 12.2974L12.0233 14.4495C8.98248 13.1461 6.53535 10.9214 5.10165 8.15709L7.46888 6.39569C7.62657 6.2791 7.73818 6.11897 7.78681 5.93956C7.83545 5.76015 7.81846 5.57121 7.73842 5.40136L5.86338 1.42401C5.77554 1.24092 5.62016 1.09143 5.42406 1.00131C5.22796 0.911204 5.00341 0.886124 4.78915 0.930398L0.726575 1.78269C0.519997 1.82605 0.335688 1.93179 0.203728 2.08265C0.0717689 2.23351 -4.75872e-05 2.42057 2.36575e-08 2.61331C2.36575e-08 11.7221 8.12123 19.0909 18.1253 19.0909C18.3374 19.091 18.5433 19.0257 18.7093 18.9058C18.8753 18.7858 18.9917 18.6182 19.0394 18.4304L19.9769 14.7371C20.0253 14.5414 19.9971 14.3364 19.8972 14.1575C19.7973 13.9786 19.632 13.837 19.4296 13.757Z" fill="#E8D19F"/>
</svg>
