<svg width="20" height="12" viewBox="0 0 20 12" fill="none" xmlns="http://www.w3.org/2000/svg">
<path d="M5.77778 6.8514C5.77778 7.31098 5.40521 7.68355 4.94562 7.68355C4.48604 7.68355 4.11347 7.31098 4.11347 6.8514C4.11347 6.39182 4.48604 6.01925 4.94562 6.01925C5.40521 6.01925 5.77778 6.39178 5.77778 6.8514ZM14.9778 6.01959C14.5185 6.01959 14.146 6.39199 14.146 6.8514C14.146 7.31077 14.5184 7.6832 14.9778 7.6832C15.4372 7.6832 15.8096 7.31081 15.8096 6.8514C15.8096 6.39199 15.4372 6.01959 14.9778 6.01959ZM18.0816 10.863C15.9057 12.568 12.7595 12.1862 11.0545 10.0103L9.97889 11.6188L8.91351 10.0237C7.23722 12.1205 4.20441 12.5199 2.0425 10.9283C-0.181736 9.29091 -0.657465 6.16043 0.979965 3.93619C0.769419 3.2235 0.437938 2.55231 0 1.95192L3.13493 1.95019C5.18547 0.674262 7.56292 0.0224295 9.97746 0.074144C12.3343 0.0321277 14.6525 0.675669 16.6504 1.92654L19.9913 1.92911C19.5494 2.53409 19.2162 3.21145 19.0069 3.93081C20.6316 6.10953 20.2209 9.18671 18.0816 10.863ZM9.00576 6.89445C9.00552 4.68761 7.21635 2.8988 5.00951 2.89904C2.80267 2.89928 1.01389 4.68845 1.0141 6.89529C1.01434 9.10213 2.80351 10.8909 5.01035 10.8907C7.21566 10.8881 9.00285 9.10116 9.00576 6.89584V6.89445ZM9.99851 6.53143C10.1872 3.98143 12.2732 1.98685 14.8291 1.91262C13.2985 1.25084 11.6448 0.92168 9.97743 0.946922C8.30793 0.930732 6.65242 1.25262 5.11062 1.89321C7.69201 1.94814 9.80851 3.95654 9.99851 6.53143ZM18.7383 5.53258C17.9747 3.46196 15.6771 2.40244 13.6065 3.16602C11.5359 3.92963 10.4764 6.2272 11.24 8.29779V8.2989C12.0052 10.3686 14.3024 11.4271 16.3728 10.6639C18.4428 9.89991 19.5018 7.60275 18.7383 5.53258ZM7.4175 6.85116V6.85515C7.41552 8.22071 6.30687 9.32609 4.94132 9.32411C3.57576 9.32213 2.47038 8.21348 2.47236 6.84793C2.47434 5.48237 3.58299 4.37699 4.94854 4.37897C6.3117 4.383 7.41528 5.488 7.4175 6.85116ZM6.56639 6.85116V6.84824C6.56462 5.95296 5.83743 5.22862 4.94215 5.23039C4.04687 5.23216 3.32253 5.95935 3.3243 6.85459C3.32608 7.74987 4.05326 8.47421 4.94851 8.47244C5.84177 8.46852 6.56437 7.74439 6.56639 6.85116ZM17.4491 6.85116V6.85282C17.4484 8.21838 16.3409 9.32484 14.9753 9.32411C13.6097 9.32338 12.5033 8.21584 12.504 6.85025C12.5047 5.4847 13.6123 4.37824 14.9778 4.37897C16.3421 4.38126 17.4473 5.48692 17.4491 6.85116ZM16.5983 6.85088C16.598 5.9556 15.872 5.23008 14.9767 5.23039C14.0814 5.23071 13.3559 5.95671 13.3562 6.85199C13.3565 7.74727 14.0825 8.47275 14.9778 8.47248C15.8724 8.47088 16.5971 7.74581 16.5983 6.85119V6.85088Z" fill="#E8D19F"/>
</svg>
